<svg width="17" height="19" viewBox="0 0 17 19" fill="none" xmlns="http://www.w3.org/2000/svg">
<path fill-rule="evenodd" clip-rule="evenodd" d="M0.590718 0.679088C0.968941 0.300864 1.48192 0.0883789 2.01681 0.0883789H10.0841C10.2623 0.0883789 10.4334 0.159207 10.5594 0.285282L15.9376 5.66344C16.0636 5.78951 16.1344 5.9605 16.1344 6.1388V16.8951C16.1344 17.43 15.922 17.943 15.5437 18.3212C15.1655 18.6994 14.6525 18.9119 14.1176 18.9119H2.01681C1.48192 18.9119 0.968941 18.6994 0.590718 18.3212C0.212494 17.943 0 17.43 0 16.8951V2.10519C0 1.5703 0.212494 1.05731 0.590718 0.679088ZM6.67434 8.20396C7.01893 8.54853 7.01893 9.10721 6.67434 9.45179L4.60919 11.517L6.67434 13.5821C7.01893 13.9267 7.01893 14.4853 6.67434 14.8299C6.32977 15.1745 5.77109 15.1745 5.42651 14.8299L2.73744 12.1409C2.39285 11.7963 2.39285 11.2376 2.73744 10.893L5.42651 8.20396C5.77109 7.85938 6.32977 7.85938 6.67434 8.20396ZM9.46012 8.20396C9.80471 7.85938 10.3634 7.85938 10.708 8.20396L13.397 10.893C13.7416 11.2376 13.7416 11.7963 13.397 12.1409L10.708 14.8299C10.3634 15.1745 9.80471 15.1745 9.46012 14.8299C9.11554 14.4853 9.11554 13.9267 9.46012 13.5821L11.5252 11.517L9.46012 9.45179C9.11554 9.10721 9.11554 8.54853 9.46012 8.20396Z" fill="white"/>
</svg>
