<svg width="19" height="19" viewBox="0 0 19 19" fill="none" xmlns="http://www.w3.org/2000/svg">
<path fill-rule="evenodd" clip-rule="evenodd" d="M16.5849 11.3174V4.77705H5.75761V6.38347C5.75761 6.94039 5.30614 7.39187 4.74921 7.39187C4.19228 7.39187 3.74081 6.94039 3.74081 6.38347V2.59221C3.74081 1.32656 4.76681 0.300545 6.03246 0.300532L16.3099 0.300293C17.5756 0.300293 18.6017 1.32631 18.6017 2.59198V11.3174C18.6017 12.5831 17.5757 13.6091 16.31 13.6091H15.2669C14.7099 13.6091 14.2585 13.1576 14.2585 12.6007C14.2585 12.0438 14.7099 11.5923 15.2669 11.5923H16.31C16.4618 11.5923 16.5849 11.4693 16.5849 11.3174ZM2.01681 13.4742V16.7086C2.01681 16.8603 2.13986 16.9834 2.29166 16.9834L10.4207 16.9831C10.5725 16.9831 10.6956 16.8601 10.6956 16.7083V13.4742H2.01681ZM10.4207 8.99629L2.29168 8.99653C1.02604 8.99655 0 10.0226 0 11.2882V16.7086C0 17.9742 1.02602 19.0002 2.29168 19.0002L10.4207 19C11.6864 19 12.7124 17.974 12.7124 16.7083V11.288C12.7124 10.0223 11.6864 8.99629 10.4207 8.99629Z" fill="white"/>
</svg>
